<?xml version="1.0" encoding="UTF-8"?>
<svg id="_图层_2" data-name="图层 2" xmlns="http://www.w3.org/2000/svg" viewBox="0 0 88 38">
  <defs>
    <style>
      .cls-1 {
        fill: #fff;
      }

      .cls-2 {
        fill: #57493e;
      }

      .cls-3 {
        fill: #ffbe31;
      }
    </style>
  </defs>
  <g id="_图层_1-2" data-name="图层 1">
    <rect class="cls-2" y="0" width="88" height="38" rx="19" ry="19"/>
    <path class="cls-3" d="m28.39,8.85c.25.79.4,1.62.4,2.49,0,4.47-3.63,8.1-8.1,8.1-2.62,0-4.94-1.25-6.42-3.18-.18.76-.28,1.55-.28,2.37,0,5.81,4.71,10.53,10.53,10.53s10.53-4.71,10.53-10.53c0-4.44-2.76-8.24-6.65-9.78Z"/>
    <g>
      <path class="cls-1" d="m50.57,19.48c0,.81-.13,1.55-.39,2.22-.26.67-.63,1.25-1.11,1.73s-1.05.85-1.72,1.12c-.67.27-1.42.4-2.23.4h-4.12v-10.92h4.12c.82,0,1.56.13,2.23.4.67.27,1.24.64,1.72,1.12.48.48.85,1.06,1.11,1.73.26.67.39,1.41.39,2.22Zm-1.81,0c0-.63-.08-1.19-.25-1.69-.17-.5-.41-.92-.73-1.27-.32-.34-.7-.61-1.15-.79-.45-.18-.96-.28-1.52-.28h-2.34v8.05h2.34c.56,0,1.07-.09,1.52-.27.45-.18.83-.45,1.15-.79.32-.35.56-.77.73-1.27.17-.5.25-1.06.25-1.69Z"/>
      <path class="cls-1" d="m51.83,18.28c.88-.81,1.92-1.22,3.12-1.22.45,0,.84.07,1.19.22.35.14.64.35.87.61.24.26.42.57.54.94.12.36.19.76.19,1.2v4.91h-.73c-.16,0-.28-.02-.36-.07-.08-.05-.15-.15-.2-.29l-.16-.63c-.2.18-.39.33-.58.47s-.39.26-.6.35c-.2.1-.42.17-.66.22s-.49.07-.78.07c-.31,0-.61-.04-.88-.13s-.5-.22-.7-.39c-.2-.17-.35-.39-.47-.65-.11-.26-.17-.56-.17-.91,0-.3.08-.59.24-.87.16-.28.42-.54.79-.76.37-.22.85-.41,1.45-.56.6-.15,1.34-.23,2.22-.25v-.52c0-.56-.12-.97-.36-1.24s-.59-.41-1.05-.41c-.31,0-.58.04-.79.12-.21.08-.4.16-.55.25-.16.09-.3.18-.42.25-.12.08-.25.12-.39.12-.11,0-.21-.03-.28-.09s-.14-.13-.19-.22l-.3-.53Zm4.32,3.28c-.58.02-1.07.07-1.47.14-.4.07-.72.17-.97.28-.25.11-.43.25-.54.41-.11.16-.16.33-.16.52s.03.34.09.47c.06.13.14.23.24.32.1.08.22.14.36.18.14.04.29.06.46.06.42,0,.79-.08,1.1-.24.31-.16.6-.39.89-.69v-1.43Z"/>
      <path class="cls-1" d="m61.18,18.63c.24-.49.54-.88.88-1.16.34-.28.76-.42,1.24-.42.17,0,.32.02.47.06.15.04.28.09.39.17l-.11,1.23c-.02.09-.05.15-.1.18-.04.03-.1.05-.17.05-.08,0-.18-.01-.33-.04s-.29-.04-.45-.04c-.23,0-.43.03-.6.1-.17.07-.33.16-.47.29-.14.13-.26.28-.37.46-.11.18-.2.39-.29.62v4.81h-1.63v-7.73h.95c.17,0,.29.03.36.09.07.06.11.17.14.33l.1,1.01Z"/>
      <path class="cls-1" d="m66.87,13.71v6.51h.35c.11,0,.2-.01.27-.05.07-.03.14-.09.22-.19l2.17-2.48c.08-.1.16-.18.25-.23.09-.05.21-.08.35-.08h1.48l-2.61,2.94c-.15.2-.32.35-.5.47.1.07.19.15.27.24.08.09.15.19.22.3l2.78,3.78h-1.46c-.13,0-.24-.02-.34-.06-.09-.04-.17-.12-.25-.24l-2.24-3.03c-.08-.12-.15-.19-.23-.22-.08-.03-.19-.05-.34-.05h-.4v3.61h-1.63v-11.22h1.63Z"/>
    </g>
  </g>
</svg>