<?xml version="1.0" encoding="UTF-8"?>
<svg id="_图层_1" data-name="图层 1" xmlns="http://www.w3.org/2000/svg" viewBox="0 0 150 150">
  <defs>
    <style>
      .cls-1 {
        fill: #ff0000;
      }
    </style>
  </defs>
  <g id="_图层_2" data-name="图层 2">
    <g id="_图层_1-2" data-name="图层 1-2">
      <path class="cls-1" d="m146.76,38.08c-1.75-6.43-6.79-11.44-13.23-13.14-11.71-3.05-58.56-3.05-58.56-3.05,0,0-45.99-.19-57.7,2.86-6.75,1.71-12.16,6.73-14.38,13.33C.77,49.86-.19,61.82.03,73.79c-.22,11.97.74,23.93,2.86,35.71,2.25,6.58,7.65,11.59,14.38,13.33,11.71,3.14,57.7,2.86,57.7,2.86,0,0,45.99.19,57.7-2.86,6.7-1.72,12.05-6.75,14.19-13.33,2.17-11.78,3.22-23.73,3.14-35.71.03-11.98-1.06-23.93-3.24-35.71Zm-86.17,58.75v-46.08l37.42,23.04-37.42,23.04Z"/>
    </g>
  </g>
</svg>