<?xml version="1.0" encoding="UTF-8"?>
<svg id="_图层_1" data-name=" 图层 1" xmlns="http://www.w3.org/2000/svg" viewBox="0 0 150 150">
  <defs>
    <style>
      .cls-1 {
        fill: #dbdee1;
      }
    </style>
  </defs>
  <path class="cls-1" d="m126.96,26.82c-9.71-4.5-20.04-7.81-30.93-9.71-1.34,2.37-2.92,5.6-3.95,8.21-11.52-1.74-22.96-1.74-34.25,0-1.1-2.6-2.68-5.84-4.02-8.21-10.89,1.89-21.23,5.21-30.93,9.71C3.3,56.34-1.99,85.14.62,113.47c13.02,9.71,25.57,15.55,37.96,19.41,3.08-4.18,5.76-8.68,8.13-13.34-4.5-1.66-8.76-3.79-12.78-6.23,1.1-.79,2.13-1.66,3.16-2.45,24.7,11.52,51.45,11.52,75.84,0,1.03.87,2.05,1.66,3.16,2.45-4.02,2.45-8.36,4.5-12.78,6.23,2.37,4.66,5.05,9.15,8.13,13.34,12.39-3.87,25.02-9.71,37.96-19.41,3.08-32.91-5.29-61.4-22.25-86.65h-.16ZM50.02,96.11c-7.42,0-13.49-6.87-13.49-15.31s5.92-15.31,13.49-15.31,13.57,6.87,13.49,15.31c0,8.36-5.92,15.31-13.49,15.31Zm49.79,0c-7.42,0-13.49-6.87-13.49-15.31s5.92-15.31,13.49-15.31,13.57,6.87,13.49,15.31c0,8.36-5.92,15.31-13.49,15.31Z"/>
</svg>