<?xml version="1.0" encoding="UTF-8"?>
<svg id="_图层_1" data-name="图层 1" xmlns="http://www.w3.org/2000/svg" viewBox="0 0 150 150">
  <defs>
    <style>
      .cls-1 {
        fill: #27a6e6;
      }
    </style>
  </defs>
  <g id="_图层_2" data-name="图层 2">
    <g id="_图层_1-2" data-name="图层 1-2">
      <path class="cls-1" d="m79.29,110.92c-3.22-3.22-7.65-4.64-10.99-7.87-5.14-4.99-3.79-8.92.37-12.94,7.62-7.37,15.61-14.35,23.27-21.68,6.43-6.15,13.26-11.9,19.09-18.65,1.22-1.42,3.39-3.05,1.35-5.11-1.73-1.75-3.56-.03-5.01.93-17.83,11.78-35.62,23.6-53.39,35.46-2.03,1.35-4.11,2.62-6.2,3.88-6.73,3.84-14.82,4.48-22.07,1.77-6.63-2.02-13.18-4.32-19.76-6.54-2.74-.92-5.56-2.33-5.92-5.33-.38-3.23,2.34-4.9,5.04-6.1,8.61-3.82,17.22-7.63,25.84-11.42,17.91-7.64,35.76-15.42,53.74-22.87,17.19-7.12,34.15-14.83,51.96-20.39,1.5-.48,3.05-.82,4.61-1.03,3.68-1.03,7.49,1.12,8.52,4.8.24.84.31,1.73.22,2.6-.27,9.46-1.31,18.89-3.12,28.18-3.1,20.24-6.47,40.43-9.73,60.64-1.72,6.34-1.99,12.99-4.2,19.24-3.01,8.53-8.25,10.97-16.31,6.77-10.02-5.23-18.83-12.42-28.31-18.53-2.99-1.93-5.99-3.86-8.99-5.78Z"/>
    </g>
  </g>
</svg>